<svg width="256" height="256" viewBox="0 0 256 256" fill="none" xmlns="http://www.w3.org/2000/svg">
  <!-- Background -->
  <rect width="256" height="256" rx="48" fill="#0F172A"/>

  <!-- Glow -->
  <circle cx="128" cy="128" r="82" fill="#0EA5E9" fill-opacity="0.08"/>

  <!-- Anvil Base -->
  <path
    d="M62 146H194L182 172H74L62 146Z"
    fill="#111827"
    stroke="#334155"
    stroke-width="4"
  />

  <!-- Anvil Body -->
  <path
    d="M78 102H178L162 126H108L94 142H66L82 120L78 102Z"
    fill="#1E293B"
    stroke="#475569"
    stroke-width="4"
    stroke-linejoin="round"
  />

  <!-- Anvil Stand -->
  <path
    d="M110 172H146L154 204H102L110 172Z"
    fill="#1E293B"
    stroke="#475569"
    stroke-width="4"
  />

  <!-- Main Check -->
  <path
    d="M88 132L120 164L188 92"
    stroke="#38BDF8"
    stroke-width="18"
    stroke-linecap="round"
    stroke-linejoin="round"
  />

  <!-- Inner Highlight -->
  <path
    d="M96 132L120 156L180 100"
    stroke="#7DD3FC"
    stroke-width="7"
    stroke-linecap="round"
    stroke-linejoin="round"
    opacity="0.9"
  />

  <!-- Sparks -->
  <path
    d="M74 82L82 94"
    stroke="#38BDF8"
    stroke-width="5"
    stroke-linecap="round"
  />

  <path
    d="M92 74L96 90"
    stroke="#0EA5E9"
    stroke-width="5"
    stroke-linecap="round"
  />

  <path
    d="M60 98L74 102"
    stroke="#7DD3FC"
    stroke-width="5"
    stroke-linecap="round"
  />

  <!-- Bottom Accent -->
  <rect
    x="74"
    y="214"
    width="108"
    height="6"
    rx="3"
    fill="#0EA5E9"
    opacity="0.7"
  />
</svg>